<?xml version="1.0" encoding="UTF-8"?>
<svg version="1.1" xmlns="http://www.w3.org/2000/svg" width="95" height="162">
<path d="M0 0 C1.11858398 0.00580078 1.11858398 0.00580078 2.25976562 0.01171875 C3.37254883 0.00591797 3.37254883 0.00591797 4.5078125 0 C10.06899561 0.01008374 10.06899561 0.01008374 12.32226562 1.13671875 C12.28963623 1.93343994 12.25700684 2.73016113 12.22338867 3.55102539 C12.0113969 13.01528017 13.10045849 21.88746908 14.72094727 31.18920898 C15.13805877 33.59319852 15.53300953 36.00012971 15.92578125 38.40820312 C16.18815918 39.96245857 16.45178611 41.5165038 16.71679688 43.0703125 C16.83255569 43.77772079 16.94831451 44.48512909 17.06758118 45.213974 C18.13269653 51.21062131 19.45858874 56.40306584 24.00976562 60.63671875 C27.56560358 64.82992389 27.66092618 69.87157075 27.55664062 75.1640625 C26.18385516 82.03301221 19.31542589 85.63465366 13.91992188 89.33203125 C10.8639467 91.47873417 10.8639467 91.47873417 9.31835938 94.87890625 C9.32029297 95.99652344 9.32029297 95.99652344 9.32226562 97.13671875 C9.32226562 97.79671875 9.32226562 98.45671875 9.32226562 99.13671875 C14.82331602 100.34694984 17.50253591 100.02855658 22.32226562 97.13671875 C23.65127646 96.46147626 24.9838133 95.79304762 26.32226562 95.13671875 C26.42114652 101.32970517 26.49374049 107.52223207 26.54199219 113.71582031 C26.56210688 115.82267257 26.5894023 117.929469 26.62402344 120.03613281 C26.67254731 123.06459322 26.69523579 126.09231553 26.71289062 129.12109375 C26.73353577 130.0628949 26.75418091 131.00469604 26.77545166 131.97503662 C26.77769067 138.50115748 26.77769067 138.50115748 24.48535156 141.70019531 C20.39007351 144.41990367 16.50723193 144.3115745 11.76757812 144.33984375 C11.02901581 144.34554382 10.29045349 144.3512439 9.5295105 144.3571167 C7.96776762 144.3665552 6.40600492 144.37309612 4.84423828 144.37695312 C2.46286037 144.38665521 0.08234719 144.41768653 -2.29882812 144.44921875 C-3.81835427 144.45574969 -5.33788656 144.46099981 -6.85742188 144.46484375 C-7.56591278 144.47719055 -8.27440369 144.48953735 -9.00436401 144.5022583 C-14.61131922 144.47716749 -17.75838868 143.05606444 -21.67773438 139.13671875 C-21.87304688 136.09765625 -21.87304688 136.09765625 -21.80273438 132.51171875 C-21.7846875 131.32320312 -21.76664063 130.1346875 -21.74804688 128.91015625 C-21.72484375 127.99492187 -21.70164062 127.0796875 -21.67773438 126.13671875 C-20.71351562 126.08773437 -19.74929687 126.03875 -18.75585938 125.98828125 C-16.8609375 125.87613281 -16.8609375 125.87613281 -14.92773438 125.76171875 C-13.04828125 125.65730469 -13.04828125 125.65730469 -11.13085938 125.55078125 C-8.06775317 125.18348571 -6.25799172 124.73960589 -3.67773438 123.13671875 C-3.67773438 121.15671875 -3.67773438 119.17671875 -3.67773438 117.13671875 C-9.61773437 116.80671875 -15.55773438 116.47671875 -21.67773438 116.13671875 C-21.34773438 114.81671875 -21.01773437 113.49671875 -20.67773438 112.13671875 C-20.03707031 112.14832031 -19.39640625 112.15992187 -18.73632812 112.171875 C-13.59120215 112.22554994 -8.74748514 112.01841453 -3.67773438 111.13671875 C-2.99814835 108.73952443 -2.99814835 108.73952443 -2.67773438 106.13671875 C-5.69866652 103.1157866 -9.2414551 103.66995041 -13.30273438 103.51171875 C-14.10453125 103.47304687 -14.90632813 103.434375 -15.73242188 103.39453125 C-17.71380993 103.30017944 -19.69574083 103.2173566 -21.67773438 103.13671875 C-21.67773438 102.14671875 -21.67773438 101.15671875 -21.67773438 100.13671875 C-20.55753906 100.08773437 -19.43734375 100.03875 -18.28320312 99.98828125 C-16.81052235 99.91324019 -15.33786731 99.83769293 -13.86523438 99.76171875 C-13.12724609 99.73078125 -12.38925781 99.69984375 -11.62890625 99.66796875 C-7.85880323 99.46325727 -5.88122697 99.27238048 -2.67773438 97.13671875 C-3.05677645 93.84595879 -3.05677645 93.84595879 -4.67773438 91.13671875 C-7.37009213 90.89993159 -10.04271593 90.7147385 -12.74023438 90.57421875 C-13.49884766 90.53103516 -14.25746094 90.48785156 -15.0390625 90.44335938 C-16.91838875 90.33698242 -18.79803681 90.23631941 -20.67773438 90.13671875 C-21.00773437 89.14671875 -21.33773438 88.15671875 -21.67773438 87.13671875 C-20.64132813 87.08773437 -19.60492187 87.03875 -18.53710938 86.98828125 C-17.1672923 86.91322278 -15.7975019 86.83767628 -14.42773438 86.76171875 C-13.74582031 86.73078125 -13.06390625 86.69984375 -12.36132812 86.66796875 C-8.69034399 86.45412501 -5.81521822 86.1259482 -2.67773438 84.13671875 C-3.05677645 80.84595879 -3.05677645 80.84595879 -4.67773438 78.13671875 C-7.53651347 77.89970636 -10.37656735 77.71452693 -13.24023438 77.57421875 C-14.44969727 77.50944336 -14.44969727 77.50944336 -15.68359375 77.44335938 C-17.68142242 77.33696613 -19.67955507 77.23630987 -21.67773438 77.13671875 C-22.59884312 66.74865905 -22.59884312 66.74865905 -20.41210938 62.921875 C-18.80273437 61.13671875 -18.80273437 61.13671875 -17.18554688 59.63671875 C-13.52931825 55.99943432 -13.25102221 51.99727542 -12.67773438 47.01171875 C-12.17865348 42.72497034 -11.58714173 38.53971083 -10.71679688 34.3125 C-9.63314978 29.04907124 -8.81093302 23.76821431 -8.05273438 18.44921875 C-7.91867188 17.55138672 -7.78460938 16.65355469 -7.64648438 15.72851562 C-7.08424409 11.81291366 -6.59978266 8.0150441 -6.65429688 4.0546875 C-6.66203125 3.09175781 -6.66976562 2.12882813 -6.67773438 1.13671875 C-4.86585595 -0.67515967 -2.40795928 0.00437413 0 0 Z " fill="#ECAD58" transform="translate(43.677734375,12.86328125)"/>
<path d="M0 0 C2.0078125 0.23046875 2.0078125 0.23046875 5.0078125 2.23046875 C5.3828125 5.23046875 5.3828125 5.23046875 5.0078125 8.23046875 C1.2872289 10.71085782 -0.59015321 10.69384078 -4.9921875 10.23046875 C-7.4296875 8.23046875 -7.4296875 8.23046875 -8.9921875 6.23046875 C-6.75287022 0.40824381 -6.4160108 0.13021424 0 0 Z " fill="#A46718" transform="translate(25.9921875,3.76953125)"/>
<path d="M0 0 C0.33 1.65 0.66 3.3 1 5 C-0.6875 6.5625 -0.6875 6.5625 -3 8 C-5.69809776 7.74303831 -7.58350693 7.20824654 -10 6 C-10.1875 3.625 -10.1875 3.625 -10 1 C-6.1496895 -1.56687367 -4.41430237 -0.83288724 0 0 Z " fill="#E39730" transform="translate(30,20)"/>
<path d="M0 0 C2.25 1.4375 2.25 1.4375 3.0625 4.0625 C3.124375 4.84625 3.18625 5.63 3.25 6.4375 C-0.20245824 8.73913882 -1.69738713 8.78240322 -5.75 8.4375 C-7.75 6.4375 -7.75 6.4375 -7.875 3.8125 C-7.83375 3.02875 -7.7925 2.245 -7.75 1.4375 C-4.80181084 -0.07871157 -3.29643456 -0.67427071 0 0 Z " fill="#E6AD5F" transform="translate(67.75,13.5625)"/>
<path d="M0 0 C2.625 0.75 2.625 0.75 5 2 C5.33 2.66 5.66 3.32 6 4 C5.01 5.485 5.01 5.485 4 7 C0.875 7.1875 0.875 7.1875 -2 7 C-2.33 5.35 -2.66 3.7 -3 2 C-2.01 1.34 -1.02 0.68 0 0 Z " fill="#DDA768" transform="translate(55,1)"/>
<path d="M0 0 C1.65 0 3.3 0 5 0 C5.33 1.65 5.66 3.3 6 5 C5.01 5.66 4.02 6.32 3 7 C2.01 6.67 1.02 6.34 0 6 C0 4.02 0 2.04 0 0 Z " fill="#E59427" transform="translate(24,21)"/>
<path d="M0 0 C1.67542976 0.28604898 3.34385343 0.61781233 5 1 C4.67 2.65 4.34 4.3 4 6 C2.35 5.67 0.7 5.34 -1 5 C-1 1 -1 1 0 0 Z " fill="#8D5D23" transform="translate(26,31)"/>
<path d="M0 0 C1.2065625 0.0309375 1.2065625 0.0309375 2.4375 0.0625 C3 2 3 2 3.4375 4.0625 C2.4375 5.0625 2.4375 5.0625 -0.125 5.125 C-1.3315625 5.0940625 -1.3315625 5.0940625 -2.5625 5.0625 C-3.125 3.125 -3.125 3.125 -3.5625 1.0625 C-2.5625 0.0625 -2.5625 0.0625 0 0 Z " fill="#E2A04A" transform="translate(64.5625,27.9375)"/>
<path d="M0 0 C5.61 0 11.22 0 17 0 C16.67 0.99 16.34 1.98 16 3 C10.72 2.34 5.44 1.68 0 1 C0 0.67 0 0.34 0 0 Z " fill="#BC8F7D" transform="translate(23,125)"/>
<path d="M0 0 C2.4375 0.375 2.4375 0.375 5 1 C5.33 1.66 5.66 2.32 6 3 C5.67 3.66 5.34 4.32 5 5 C3.02 5 1.04 5 -1 5 C-0.67 3.35 -0.34 1.7 0 0 Z " fill="#8E6023" transform="translate(38,3)"/>
<path d="M0 0 C2.0078125 0.23046875 2.0078125 0.23046875 5.0078125 2.23046875 C5.1953125 5.35546875 5.1953125 5.35546875 5.0078125 8.23046875 C4.6778125 8.23046875 4.3478125 8.23046875 4.0078125 8.23046875 C3.6778125 6.58046875 3.3478125 4.93046875 3.0078125 3.23046875 C2.1003125 3.27171875 1.1928125 3.31296875 0.2578125 3.35546875 C-2.8703921 3.23515319 -4.37832756 2.83899795 -6.9921875 1.23046875 C-5.11574989 -0.64596886 -2.49413049 0.05061888 0 0 Z " fill="#9F6C2E" transform="translate(25.9921875,3.76953125)"/>
<path d="M0 0 C0.33 1.65 0.66 3.3 1 5 C0.34 4.01 -0.32 3.02 -1 2 C-2.99956611 1.95834237 -5.00043389 1.95834237 -7 2 C-7.66 1.34 -8.32 0.68 -9 0 C-5.93109813 -1.53445094 -3.29905734 -0.54984289 0 0 Z " fill="#D6963D" transform="translate(30,20)"/>
<path d="M0 0 C0.33 0 0.66 0 1 0 C2.10228696 4.40914783 2.07654536 8.48382401 2 13 C1.67 13 1.34 13 1 13 C-0.6290678 8.20862412 -1.20577428 4.94367454 0 0 Z " fill="#DEA961" transform="translate(55,28)"/>
<path d="M0 0 C1.88391785 3.26545761 2.49287967 6.28111761 3 10 C2.01 10.33 1.02 10.66 0 11 C0 7.33333333 0 3.66666667 0 0 Z " fill="#E1A666" transform="translate(60,60)"/>
</svg>
